<svg width="219" height="227" viewBox="0 0 219 227" fill="none" xmlns="http://www.w3.org/2000/svg">
<path d="M173.646 86.5046C173.188 51.8956 145.885 23.8851 112.389 23.8851C97.4886 23.8851 83.1334 29.5033 71.9687 39.705C62.0043 48.8094 55.1879 60.976 52.4885 74.3339C52.2913 74.3317 52.0958 74.33 51.9008 74.33C23.2832 74.33 0 98.4633 0 128.127C0 157.79 23.2832 181.923 51.9012 181.923H88.1486C90.7274 181.923 92.819 179.756 92.819 177.082C92.819 174.408 90.7274 172.241 88.1486 172.241H51.9012C28.4332 172.241 9.34085 152.452 9.34085 128.127C9.34085 103.802 28.4332 84.012 51.9012 84.012C53.1515 84.012 54.4732 84.0816 55.9424 84.2248C58.4327 84.4665 60.6684 82.6305 61.0076 80.059C62.6895 67.2815 68.7757 55.5293 78.1456 46.9676C87.6033 38.3257 99.7641 33.5667 112.388 33.5667C141.019 33.5667 164.31 57.7098 164.31 87.3855C164.31 88.454 164.234 89.5553 164.153 90.7214L164.118 91.217C164.021 92.6411 164.535 94.0372 165.524 95.0317C166.512 96.0262 167.872 96.5174 169.244 96.3751C170.486 96.2452 171.74 96.18 172.969 96.18C193.2 96.18 209.659 113.24 209.659 134.21C209.659 155.18 193.2 172.24 172.969 172.24H134.853C132.274 172.24 130.183 174.408 130.183 177.081C130.183 179.755 132.274 181.922 134.853 181.922H172.969C198.35 181.922 219 160.519 219 134.21C219 108.138 198.716 86.881 173.646 86.5046Z" fill="white"/>
<path d="M112.389 46.6378C92.8597 46.6378 76.1421 61.7656 73.5022 81.8258C73.1536 84.4749 74.9432 86.9156 77.4985 87.2769C77.7128 87.307 77.9254 87.3221 78.1354 87.3221C80.4344 87.3221 82.4379 85.562 82.7566 83.135C84.7682 67.848 97.5074 56.3198 112.389 56.3198C114.968 56.3198 117.059 54.1527 117.059 51.4788C117.06 48.8053 114.968 46.6378 112.389 46.6378Z" fill="white"/>
<path d="M133.628 141.898L116.64 126.167C113.711 123.454 109.292 123.455 106.362 126.167L89.3736 141.898C87.4497 143.679 87.2837 146.74 89.0019 148.734C90.7201 150.727 93.6724 150.901 95.5967 149.119L106.831 138.717V198.274C106.831 200.948 108.921 203.115 111.501 203.115C114.08 203.115 116.172 200.948 116.172 198.274V138.716L127.406 149.119C128.297 149.944 129.408 150.35 130.516 150.35C131.8 150.35 133.078 149.805 134.001 148.733C135.718 146.739 135.552 143.679 133.628 141.898Z" fill="white"/>
</svg>
