<svg width="133" height="124" viewBox="0 0 133 124" fill="none" xmlns="http://www.w3.org/2000/svg">
<path d="M32.2361 57.0822L10.3926 81.2106V121.922C10.3926 123.068 11.2678 123.999 12.3491 123.999H38.8711C39.9511 123.999 40.8276 123.068 40.8276 121.922V59.4718L34.7104 57.0822H32.2361Z" fill="#E92343"/>
<path d="M86.261 76.005H59.739C58.659 76.005 57.7825 76.9354 57.7825 78.0817V121.922C57.7825 123.068 58.659 123.999 59.739 123.999H86.261C87.3423 123.999 88.2175 123.068 88.2175 121.922V78.0817C88.2175 76.9354 87.3423 76.005 86.261 76.005Z" fill="#E92343"/>
<path d="M132.68 32.2423C131.667 32.8044 130.526 33.102 129.381 33.102C127.716 33.102 126.092 32.479 124.815 31.3438L119.997 27.0686L102.565 47.254V121.923C102.565 123.07 103.442 124 104.521 124H131.044C132.125 124 133 123.07 133 121.923V32.0305C132.89 32.0997 132.793 32.18 132.68 32.2423Z" fill="#E92343"/>
<path d="M75.3856 66.3055C76.8777 66.8856 78.5472 66.455 79.622 65.2145L119.846 18.6372L129.259 26.9883C129.72 27.3953 130.364 27.4715 130.895 27.1766C131.426 26.8803 131.737 26.2794 131.684 25.644L129.644 1.4312C129.572 0.565918 128.854 -0.0723174 128.038 0.00659671L105.226 2.1705C104.628 2.22727 104.122 2.6606 103.945 3.26561C103.884 3.46774 103.864 3.67264 103.881 3.87477C103.915 4.2818 104.099 4.66668 104.407 4.93942L113.836 13.3057L75.6243 57.5488L32.0013 40.5117C30.5431 39.944 28.9061 40.3442 27.8301 41.5292L1.09151 71.0639C-0.405845 72.7183 -0.356281 75.3488 1.20108 76.9367C1.9615 77.7134 2.93843 78.0955 3.91276 78.0955C4.94056 78.0955 5.96576 77.6677 6.73531 76.8204L31.7013 49.2421L75.3856 66.3055Z" fill="#E92343"/>
</svg>
