<svg width="182" height="215" viewBox="0 0 182 215" fill="none" xmlns="http://www.w3.org/2000/svg">
<path d="M176.944 80.625H161.778V62.7082C161.778 28.1306 130.028 0 91 0C51.9724 0 20.2224 28.1306 20.2224 62.7082V80.625H5.05571C2.26126 80.625 0 82.6285 0 85.1043V197.084C0 206.965 9.06919 215 20.2224 215H161.778C172.931 215 182 206.965 182 197.083V85.1043C182 82.6285 179.739 80.625 176.944 80.625ZM106.137 174.193C106.295 175.457 105.836 176.726 104.878 177.675C103.921 178.624 102.548 179.167 101.111 179.167H80.8891C79.4525 179.167 78.0799 178.624 77.122 177.675C76.1642 176.726 75.7049 175.458 75.8632 174.193L79.0525 148.784C73.8735 145.446 70.7781 140.167 70.7781 134.375C70.7781 124.494 79.8473 116.458 91.0005 116.458C102.154 116.458 111.223 124.493 111.223 134.375C111.223 140.167 108.127 145.446 102.948 148.784L106.137 174.193ZM131.444 80.625H50.5557V62.7082C50.5557 42.95 68.6993 26.875 91 26.875C113.301 26.875 131.444 42.95 131.444 62.7082V80.625V80.625Z" fill="white"/>
</svg>
