<svg width="243" height="245" viewBox="0 0 243 245" fill="none" xmlns="http://www.w3.org/2000/svg">
<path d="M121.5 95.8368C147.706 95.8368 169.025 74.3411 169.025 47.9188C169.025 21.4965 147.706 0 121.5 0C95.2945 0 73.9751 21.4965 73.9751 47.9188C73.9751 74.3411 95.2945 95.8368 121.5 95.8368ZM98.5107 42.7984C101.316 39.9713 105.862 39.9713 108.668 42.7984L115.53 49.718L134.332 30.7591C137.138 27.932 141.684 27.932 144.489 30.7591C147.294 33.587 147.294 38.1721 144.489 41L120.608 65.0786C119.206 66.4917 117.368 67.1995 115.53 67.1995C113.691 67.1995 111.854 66.4926 110.451 65.0786L98.5107 53.0393C95.706 50.2114 95.706 45.6255 98.5107 42.7984Z" fill="#E92443"/>
<path d="M27.9532 70.0011C43.3669 70.0011 55.9072 57.3571 55.9072 41.8158C55.9072 26.2746 43.3669 13.6306 27.9532 13.6306C12.5395 13.6306 0 26.2746 0 41.8158C0 57.3571 12.5395 70.0011 27.9532 70.0011Z" fill="#E92443"/>
<path d="M2.75482 110.348V168.882C2.75482 182.326 13.5638 193.225 26.8977 193.225H58.3626V236.458C58.3626 239.751 61.0102 242.421 64.2772 242.421H92.1584C95.4246 242.421 98.073 239.752 98.073 236.458V174.096C98.073 162.747 88.9486 153.548 77.6937 153.548H53.1524V110.348C53.1524 96.3161 41.8705 84.9409 27.954 84.9409C14.0367 84.9401 2.75482 96.3153 2.75482 110.348V110.348Z" fill="#E92443"/>
<path d="M215.047 70.0011C230.461 70.0011 243 57.3571 243 41.8158C243 26.2746 230.461 13.6306 215.047 13.6306C199.633 13.6306 187.093 26.2746 187.093 41.8158C187.093 57.3571 199.633 70.0011 215.047 70.0011Z" fill="#E92443"/>
<path d="M189.848 110.348V153.548H165.307C154.051 153.548 144.927 162.748 144.927 174.096V236.458C144.927 239.751 147.575 242.421 150.842 242.421H178.723C181.989 242.421 184.637 239.752 184.637 236.458V193.225H216.102C229.436 193.225 240.245 182.326 240.245 168.882V110.348C240.245 96.3161 228.963 84.9409 215.047 84.9409C201.13 84.9401 189.848 96.3153 189.848 110.348V110.348Z" fill="#E92443"/>
<path d="M163.322 125.226C167.289 125.226 170.503 121.984 170.503 117.986C170.503 113.987 167.288 110.745 163.322 110.745H79.6778C75.7113 110.745 72.4966 113.987 72.4966 117.986C72.4966 121.985 75.7121 125.226 79.6778 125.226H114.318V237.745C114.318 241.745 117.533 244.986 121.499 244.986C125.465 244.986 128.68 241.744 128.68 237.745V125.226H163.322V125.226Z" fill="#E92443"/>
</svg>
