<svg width="292" height="245" viewBox="0 0 292 245" fill="none" xmlns="http://www.w3.org/2000/svg">
<path d="M169.655 162.747C168.343 161.745 166.682 160.996 164.966 160.371C161.23 159.013 157.144 158.189 153.087 157.446V179.362C159.672 178.843 167.232 177.177 170.689 172.891C172.34 170.844 172.668 168.329 171.996 166.05C171.631 164.815 170.878 163.682 169.655 162.747Z" fill="#E92343"/>
<path d="M170.655 172.933C170.668 172.918 170.675 172.908 170.689 172.891C170.678 172.905 170.666 172.919 170.655 172.933Z" fill="#E92343"/>
<path d="M122.199 127.712C121.067 128.865 120.357 130.174 120.161 131.566C119.965 132.96 120.075 134.512 120.835 135.824C121.559 137.075 123.074 137.999 124.639 138.742C126.395 139.575 128.325 140.225 130.292 140.776C131.942 141.239 133.797 141.682 135.798 142.11V122.278C130.744 123.03 125.223 124.635 122.199 127.712Z" fill="#E92343"/>
<path d="M170.82 172.729C170.779 172.78 170.734 172.834 170.69 172.89C170.742 172.825 170.782 172.776 170.82 172.729Z" fill="#E92343"/>
<path d="M170.985 172.525C170.996 172.51 170.998 172.509 170.985 172.525V172.525Z" fill="#E92343"/>
<path d="M164.162 53.308C190.897 37.6515 208.761 2.37967 197.767 0.836968C183.16 -1.21363 151.44 7.77799 136.108 9.3622C114.362 11.1926 90.6785 -7.0766 77.3844 3.10664C66.5753 11.3863 85.1338 41.4967 114.169 54.6143C27.544 84.2947 -94.2132 233.293 118.199 244.104C412.107 259.063 264.936 82.2308 164.162 53.308ZM189.403 170.815C188.5 176.624 184.084 181.877 177.483 185.443C170.513 189.208 161.772 190.96 153.086 191.45V197.869C153.086 199.586 152.01 201.247 150.166 202.384C147.632 203.947 143.907 204.333 140.831 203.345C137.793 202.37 135.798 200.199 135.798 197.869V190.854C134.309 190.657 132.83 190.422 131.369 190.142C123.251 188.588 115.722 185.557 110.222 181.073C107.482 178.838 105.249 176.302 103.704 173.564C103.3 172.849 102.941 172.12 102.625 171.383C102.34 170.716 102.046 170.038 101.944 169.343C101.773 168.177 102.104 166.987 102.884 165.948C104.487 163.811 107.864 162.52 111.313 162.735C114.706 162.944 117.681 164.586 118.749 166.842C119.079 167.536 119.302 168.248 119.671 168.935C120.038 169.618 120.48 170.281 121 170.913C122.027 172.157 123.314 173.305 124.796 174.3C127.851 176.352 131.742 177.685 135.798 178.479V154.634C127.867 153.202 119.68 151.353 113.13 147.803C109.947 146.077 107.246 143.933 105.478 141.394C103.611 138.715 102.838 135.731 102.807 132.767C102.774 129.757 103.595 126.773 105.396 124.031C107.083 121.463 109.511 119.158 112.489 117.247C118.857 113.161 127.315 110.882 135.799 110.045V109.52V103.382C135.799 101.666 136.875 100.004 138.719 98.8674C141.254 97.3045 144.977 96.9182 148.054 97.9063C151.091 98.8812 153.087 101.052 153.087 103.382V109.52V110.009C154.217 110.108 155.345 110.227 156.466 110.368C164.797 111.419 172.945 113.818 179.037 118.005C181.923 119.988 184.285 122.351 185.947 124.928C186.411 125.647 186.817 126.382 187.168 127.132C187.496 127.832 187.825 128.552 187.981 129.282C188.231 130.447 187.976 131.65 187.261 132.716C185.795 134.9 182.509 136.291 179.052 136.187C175.654 136.084 172.577 134.542 171.36 132.328C170.998 131.67 170.817 130.973 170.447 130.316C170.074 129.652 169.591 129.018 169.035 128.419C167.953 127.254 166.551 126.256 164.951 125.433C161.486 123.649 157.284 122.72 153.084 122.2V145.019C158.075 145.852 163.07 146.761 167.851 148.075C175.078 150.062 181.926 153.108 185.871 157.912C185.259 157.163 184.663 156.434 185.891 157.936C187.097 159.412 186.521 158.709 185.916 157.969C189.054 161.825 190.086 166.435 189.403 170.815Z" fill="#E92343"/>
<path d="M170.563 173.046C170.512 173.109 170.469 173.164 170.434 173.206C170.464 173.17 170.508 173.115 170.563 173.046Z" fill="#E92343"/>
</svg>
