<svg width="271" height="213" viewBox="0 0 271 213" fill="none" xmlns="http://www.w3.org/2000/svg">
<path d="M216.025 54.8964C220.091 54.8964 221.236 50.7117 217.571 49.4475L74.4654 1.149C65.7611 -1.81517 55.5106 1.149 51.6166 7.81838L1.50945 93.3434C-2.3846 99.9692 1.50945 107.772 10.271 110.736L39.1328 120.239C42.7405 121.459 46.8636 119.454 46.8636 116.446V80.1354C46.8636 66.23 61.6953 54.94 79.9629 54.94H216.025V54.8964V54.8964Z" fill="#E92343"/>
<path d="M253.477 66.7531H79.9056C70.2278 66.7531 62.3824 72.725 62.3824 80.0918V173.42C62.3824 180.786 70.2278 186.758 79.9056 186.758H103.213C102.64 184.143 102.354 181.484 102.354 178.781C102.354 175.73 102.754 172.766 103.442 169.845H84.6587V125.165H248.781V169.802H229.941C230.628 172.722 231.029 175.686 231.029 178.738C231.029 181.44 230.742 184.099 230.17 186.715H253.477C263.155 186.715 271 180.743 271 173.376V80.0918C271 72.725 263.155 66.7531 253.477 66.7531ZM248.781 97.6589H84.6587V83.6663H248.781V97.6589Z" fill="#E92343"/>
<path d="M166.72 144.475C141.867 144.475 121.709 159.819 121.709 178.738C121.709 197.656 141.867 213 166.72 213C191.573 213 211.73 197.656 211.73 178.738C211.73 159.819 191.573 144.475 166.72 144.475ZM179.662 192.251C177.715 194.082 175.138 195.302 172.16 195.912C170.843 196.174 170.27 196.697 170.328 197.743C170.385 198.746 170.328 199.748 170.328 200.795C170.328 201.71 169.698 202.19 168.552 202.19C167.121 202.233 165.689 202.233 164.257 202.19C162.998 202.19 162.425 201.623 162.425 200.707C162.425 199.966 162.425 199.225 162.425 198.484C162.425 196.871 162.31 196.784 160.249 196.523C157.615 196.218 155.038 195.738 152.633 194.866C150.743 194.169 150.514 193.82 151.086 192.294C151.487 191.161 151.888 190.028 152.346 188.938C152.862 187.63 153.32 187.499 154.923 188.11C157.615 189.156 160.421 189.766 163.399 190.028C165.288 190.202 167.178 190.071 168.953 189.461C172.275 188.371 172.79 185.451 169.984 183.707C169.011 183.097 167.98 182.661 166.834 182.312C163.914 181.353 160.879 180.612 158.187 179.348C153.721 177.343 150.915 174.553 151.258 170.412C151.602 165.748 155.095 162.871 160.707 161.301C162.998 160.648 163.055 160.691 163.055 158.86C163.055 158.25 163.055 157.596 163.055 156.986C163.112 155.591 163.399 155.373 165.231 155.329C165.804 155.329 166.376 155.329 166.892 155.329C170.786 155.329 170.786 155.329 170.786 158.294C170.786 160.386 170.786 160.386 173.534 160.691C175.596 160.953 177.6 161.389 179.547 162.042C180.635 162.391 181.036 162.958 180.693 163.83C180.235 165.094 179.776 166.402 179.204 167.622C178.688 168.799 178.173 168.973 176.684 168.45C173.649 167.317 170.499 166.881 167.178 167.012C166.319 167.055 165.46 167.143 164.658 167.404C161.795 168.363 161.28 170.804 163.742 172.286C165.002 173.027 166.376 173.594 167.865 174.073C170.442 174.858 172.962 175.643 175.424 176.689C182.983 179.871 185.102 187.238 179.662 192.251Z" fill="#E92343"/>
</svg>
