<svg width="183" height="229" viewBox="0 0 183 229" fill="none" xmlns="http://www.w3.org/2000/svg">
<path d="M25.2157 92.0159C25.2157 71.5995 41.2369 55.05 61.0017 55.05C80.7666 55.05 96.7878 71.5995 96.7878 92.0159C96.7878 112.432 80.7666 128.982 61.0017 128.982C41.2369 128.982 25.2157 112.432 25.2157 92.0159ZM76.1865 131.503H45.819C20.555 131.503 0 152.735 0 178.829V217.2L0.0951414 217.798L2.65912 218.625C26.7654 226.404 47.7158 229 64.957 229C98.6318 229 118.147 219.081 119.356 218.45L121.751 217.195L122.003 217.197V178.829C122.003 152.735 101.449 131.503 76.1865 131.503ZM122.003 73.9307C141.767 73.9307 157.789 57.3812 157.789 36.9647C157.789 16.5495 141.767 0 122.003 0C102.24 0 86.217 16.5495 86.217 36.9647C86.2174 57.3812 102.24 73.9307 122.003 73.9307ZM137.187 76.4509H106.82C106.095 76.4509 105.39 76.5296 104.675 76.5654C107.42 82.5183 109.005 89.1521 109.005 96.1769C109.005 109.14 103.741 120.832 95.3292 129.171C115.012 135.219 130.057 152.485 133.482 173.763C162.508 172.453 179.24 163.981 180.353 163.4L182.748 162.144L183 162.149V123.78C183.005 97.6848 162.45 76.4509 137.187 76.4509Z" fill="white"/>
</svg>
